<svg xmlns="http://www.w3.org/2000/svg" version="1.1" xmlns:xlink="http://www.w3.org/1999/xlink" xmlns:svgjs="http://svgjs.com/svgjs" width="512.000000pt" height="512.000000pt"><svg version="1.0" xmlns="http://www.w3.org/2000/svg" width="512.000000pt" height="512.000000pt" viewBox="0 0 512.000000 512.000000" preserveAspectRatio="xMidYMid meet">
<metadata>
Created by potrace 1.14, written by Peter Selinger 2001-2017
</metadata>
<g transform="translate(0.000000,512.000000) scale(0.100000,-0.100000)" fill="#000000" stroke="none">
<path d="M700 4156 c-122 -33 -217 -111 -272 -223 l-33 -68 0 -1295 c0 -1248
1 -1297 19 -1345 46 -120 138 -213 249 -252 49 -17 146 -18 1897 -18 1790 0
1847 1 1896 19 113 42 207 133 251 246 17 42 18 124 21 1305 2 912 0 1277 -8
1320 -7 33 -23 81 -37 106 -30 56 -104 133 -158 165 -98 57 1 54 -1970 53
-1395 0 -1820 -3 -1855 -13z m3660 -1596 l0 -1240 -1800 0 -1800 0 0 1240 0
1240 1800 0 1800 0 0 -1240z"></path>
<path d="M2095 3604 c-266 -53 -485 -255 -554 -514 -11 -41 -21 -97 -23 -125
l-3 -50 1048 -3 1048 -2 -7 52 c-23 196 -114 369 -257 489 -79 66 -219 134
-319 154 -105 21 -826 20 -933 -1z m961 -115 c78 -23 196 -95 261 -159 69 -67
120 -150 149 -240 l21 -65 -463 -3 c-255 -1 -673 -1 -928 0 l-464 3 23 68 c71
208 262 374 470 407 28 5 237 7 465 6 338 -2 425 -5 466 -17z"></path>
<path d="M1512 2778 l3 -53 1045 0 1045 0 3 53 3 52 -1051 0 -1051 0 3 -52z"></path>
<path d="M1580 2627 c-13 -7 -35 -28 -47 -46 -19 -28 -23 -47 -23 -115 0 -95
19 -140 71 -171 33 -20 55 -20 967 -23 906 -3 934 -2 977 17 60 27 85 76 85
171 0 81 -16 128 -55 158 l-28 22 -961 0 c-749 0 -966 -3 -986 -13z"></path>
<path d="M1512 1988 c3 -228 8 -245 80 -318 73 -72 40 -70 968 -70 939 0 898
-3 976 76 64 67 74 110 74 331 l0 183 -1051 0 -1050 0 3 -202z m1986 -47 c-3
-156 -12 -179 -79 -213 -32 -17 -93 -18 -859 -18 -766 0 -827 1 -859 18 -67
34 -76 57 -79 213 l-4 139 942 0 942 0 -4 -139z"></path>
</g>
</svg><style>@media (prefers-color-scheme: light) { :root { filter: none; } }
</style></svg>